<?xml version="1.0" encoding="UTF-8"?>
<svg xmlns="http://www.w3.org/2000/svg" xmlns:xlink="http://www.w3.org/1999/xlink" width="24px" height="24px" viewBox="0 0 24 24" version="1.1">
<g id="surface1">
<path style=" stroke:none;fill-rule:evenodd;fill:rgb(0%,0%,0%);fill-opacity:1;" d="M 11.65625 4.425781 C 10.816406 4.542969 10.074219 5.136719 9.75 5.949219 C 9.566406 6.414062 9.53125 7.054688 9.667969 7.53125 C 9.871094 8.230469 10.375 8.832031 11.007812 9.117188 C 11.585938 9.378906 12.347656 9.394531 12.9375 9.152344 C 13.628906 8.867188 14.15625 8.25 14.363281 7.488281 C 14.414062 7.300781 14.425781 7.171875 14.425781 6.84375 C 14.425781 6.480469 14.417969 6.402344 14.347656 6.175781 C 14.128906 5.445312 13.652344 4.898438 12.976562 4.609375 C 12.589844 4.441406 12.070312 4.371094 11.65625 4.425781 M 6.386719 5.964844 C 6.070312 6.050781 5.859375 6.179688 5.597656 6.445312 C 5.21875 6.824219 5.039062 7.230469 5.039062 7.710938 C 5.039062 8.019531 5.082031 8.203125 5.222656 8.496094 C 5.382812 8.835938 5.742188 9.199219 6.074219 9.359375 C 6.300781 9.46875 6.636719 9.550781 6.871094 9.550781 C 7.625 9.550781 8.328125 9.039062 8.589844 8.292969 C 8.679688 8.035156 8.6875 7.457031 8.605469 7.207031 C 8.394531 6.601562 8.015625 6.203125 7.445312 6 C 7.222656 5.921875 6.617188 5.902344 6.386719 5.964844 M 16.777344 5.949219 C 16.039062 6.105469 15.441406 6.796875 15.371094 7.574219 C 15.308594 8.253906 15.714844 9 16.316406 9.3125 C 16.644531 9.484375 16.84375 9.535156 17.1875 9.535156 C 17.695312 9.535156 18.039062 9.390625 18.417969 9.011719 C 18.582031 8.847656 18.679688 8.71875 18.75 8.578125 C 19.175781 7.703125 18.933594 6.738281 18.15625 6.21875 C 17.839844 6.007812 17.636719 5.945312 17.230469 5.933594 C 17.046875 5.925781 16.839844 5.933594 16.777344 5.949219 M 10.242188 9.621094 C 9.703125 9.773438 9.171875 10.078125 8.78125 10.457031 C 8.40625 10.824219 8.183594 11.179688 8.011719 11.691406 L 7.925781 11.941406 L 7.925781 15.429688 L 8.023438 15.628906 C 8.09375 15.765625 8.160156 15.855469 8.246094 15.917969 C 8.503906 16.105469 8.46875 16.101562 9.664062 16.109375 C 10.410156 16.117188 10.753906 16.109375 10.742188 16.089844 C 10.730469 16.074219 10.691406 15.90625 10.648438 15.714844 C 10.402344 14.539062 10.640625 13.265625 11.292969 12.292969 C 12.109375 11.074219 13.371094 10.390625 14.847656 10.367188 C 15.160156 10.363281 15.160156 10.363281 14.847656 10.144531 C 14.503906 9.910156 13.976562 9.667969 13.605469 9.582031 C 13.457031 9.546875 13.441406 9.550781 13.207031 9.652344 C 12.796875 9.828125 12.5 9.886719 12.03125 9.886719 C 11.558594 9.886719 11.34375 9.847656 10.929688 9.683594 C 10.574219 9.546875 10.523438 9.542969 10.242188 9.621094 M 5.480469 9.8125 C 4.578125 10.0625 3.972656 10.6875 3.789062 11.558594 C 3.757812 11.722656 3.75 12.007812 3.757812 13.050781 C 3.765625 14.316406 3.765625 14.347656 3.828125 14.464844 C 3.863281 14.527344 3.945312 14.628906 4.011719 14.6875 C 4.226562 14.882812 4.25 14.886719 5.984375 14.886719 L 7.53125 14.886719 L 7.53125 13.542969 C 7.53125 12.492188 7.539062 12.144531 7.574219 11.953125 C 7.683594 11.328125 7.992188 10.730469 8.480469 10.210938 L 8.671875 10 L 8.476562 9.910156 C 8.160156 9.769531 8.070312 9.765625 7.785156 9.886719 C 7.179688 10.148438 6.457031 10.136719 5.910156 9.859375 C 5.800781 9.804688 5.699219 9.757812 5.691406 9.761719 C 5.679688 9.761719 5.585938 9.785156 5.480469 9.8125 M 18.113281 9.859375 C 17.5625 10.148438 16.773438 10.144531 16.191406 9.851562 C 16.023438 9.769531 15.847656 9.777344 15.582031 9.875 C 15.320312 9.976562 15.324219 9.960938 15.5625 10.222656 C 15.683594 10.355469 15.796875 10.460938 15.816406 10.460938 C 15.835938 10.460938 16.007812 10.511719 16.203125 10.578125 C 16.90625 10.808594 17.429688 11.128906 17.964844 11.664062 C 18.753906 12.449219 19.195312 13.425781 19.242188 14.503906 L 19.261719 14.894531 L 19.503906 14.878906 C 19.90625 14.855469 20.140625 14.691406 20.234375 14.375 C 20.296875 14.167969 20.296875 11.886719 20.234375 11.5625 C 20.074219 10.714844 19.476562 10.089844 18.589844 9.832031 C 18.453125 9.792969 18.328125 9.757812 18.320312 9.761719 C 18.308594 9.761719 18.21875 9.808594 18.113281 9.859375 M 14.210938 10.976562 C 12.664062 11.257812 11.460938 12.457031 11.144531 14.03125 C 11.078125 14.355469 11.074219 15.15625 11.132812 15.457031 C 11.363281 16.617188 12.109375 17.636719 13.128906 18.179688 C 13.433594 18.339844 13.90625 18.503906 14.253906 18.5625 C 14.585938 18.621094 15.242188 18.621094 15.570312 18.5625 C 16.0625 18.476562 16.550781 18.289062 16.910156 18.046875 L 17.105469 17.914062 L 18.183594 19.128906 C 18.777344 19.796875 19.3125 20.375 19.375 20.417969 C 19.808594 20.707031 20.386719 20.273438 20.273438 19.742188 C 20.234375 19.554688 20.226562 19.542969 18.882812 18.265625 L 17.824219 17.257812 L 18.011719 17.003906 C 18.488281 16.363281 18.738281 15.597656 18.734375 14.769531 C 18.734375 14.324219 18.683594 14.007812 18.542969 13.570312 C 18.117188 12.226562 16.949219 11.21875 15.535156 10.976562 C 15.199219 10.921875 14.527344 10.917969 14.210938 10.976562 M 14.5625 11.722656 C 14.085938 11.769531 13.546875 11.976562 13.144531 12.265625 C 12.921875 12.421875 12.558594 12.796875 12.40625 13.027344 C 11.527344 14.328125 11.757812 16.085938 12.941406 17.097656 C 13.527344 17.597656 14.136719 17.816406 14.945312 17.816406 C 15.558594 17.816406 15.972656 17.703125 16.433594 17.417969 C 17.039062 17.039062 17.558594 16.398438 17.785156 15.761719 C 17.832031 15.621094 17.894531 15.367188 17.921875 15.195312 C 18.011719 14.648438 17.917969 14.015625 17.671875 13.488281 C 17.453125 13.027344 17.09375 12.585938 16.664062 12.269531 C 16.125 11.867188 15.296875 11.652344 14.5625 11.722656 M 14.695312 12.390625 C 14.5 12.511719 14.289062 12.824219 14.183594 13.148438 C 14.148438 13.25 14.109375 13.332031 14.101562 13.332031 C 14.089844 13.332031 13.996094 13.304688 13.890625 13.269531 C 13.738281 13.21875 13.625 13.207031 13.34375 13.203125 C 13.027344 13.203125 12.976562 13.207031 12.90625 13.261719 C 12.765625 13.363281 12.710938 13.46875 12.695312 13.636719 C 12.671875 13.917969 12.839844 14.269531 13.164062 14.609375 L 13.3125 14.765625 L 13.160156 14.9375 C 12.8125 15.324219 12.671875 15.628906 12.695312 15.933594 C 12.710938 16.128906 12.78125 16.226562 12.964844 16.320312 C 13.148438 16.410156 13.476562 16.414062 13.839844 16.324219 C 13.984375 16.292969 14.101562 16.265625 14.109375 16.265625 C 14.113281 16.265625 14.132812 16.320312 14.152344 16.386719 C 14.210938 16.585938 14.402344 16.941406 14.523438 17.082031 C 14.71875 17.304688 14.929688 17.347656 15.15625 17.203125 C 15.230469 17.15625 15.332031 17.058594 15.382812 16.980469 C 15.46875 16.863281 15.664062 16.464844 15.71875 16.3125 C 15.730469 16.273438 15.753906 16.265625 15.789062 16.277344 C 16.082031 16.394531 16.542969 16.441406 16.769531 16.378906 C 16.898438 16.34375 17.039062 16.230469 17.101562 16.113281 C 17.234375 15.851562 17.054688 15.363281 16.660156 14.921875 L 16.535156 14.785156 L 16.722656 14.578125 C 16.988281 14.292969 17.121094 14.015625 17.136719 13.722656 C 17.148438 13.519531 17.140625 13.484375 17.078125 13.390625 C 16.996094 13.265625 16.832031 13.183594 16.636719 13.164062 C 16.46875 13.148438 16.113281 13.199219 15.894531 13.277344 L 15.738281 13.328125 L 15.703125 13.207031 C 15.65625 13.023438 15.484375 12.699219 15.363281 12.570312 C 15.164062 12.347656 14.886719 12.273438 14.695312 12.390625 M 14.765625 12.75 C 14.683594 12.835938 14.476562 13.234375 14.433594 13.382812 C 14.417969 13.441406 14.441406 13.460938 14.65625 13.570312 L 14.894531 13.691406 L 15.125 13.585938 C 15.25 13.527344 15.367188 13.480469 15.382812 13.480469 C 15.480469 13.480469 15.273438 12.960938 15.109375 12.789062 C 14.960938 12.632812 14.882812 12.625 14.765625 12.75 M 13.171875 13.5 C 12.992188 13.550781 12.964844 13.703125 13.097656 13.964844 C 13.199219 14.164062 13.527344 14.546875 13.582031 14.523438 C 13.605469 14.515625 13.699219 14.449219 13.792969 14.378906 L 13.96875 14.246094 L 13.992188 14.015625 C 14.03125 13.609375 14.046875 13.648438 13.816406 13.574219 C 13.617188 13.503906 13.285156 13.46875 13.171875 13.5 M 16.320312 13.507812 C 16.230469 13.523438 16.082031 13.5625 15.988281 13.597656 L 15.816406 13.664062 L 15.835938 13.820312 C 15.84375 13.90625 15.859375 14.046875 15.871094 14.132812 C 15.886719 14.28125 15.890625 14.289062 16.074219 14.410156 C 16.179688 14.480469 16.273438 14.535156 16.289062 14.535156 C 16.347656 14.535156 16.652344 14.171875 16.734375 14 C 16.835938 13.78125 16.851562 13.585938 16.765625 13.539062 C 16.679688 13.496094 16.5 13.480469 16.320312 13.507812 M 14.320312 13.914062 C 14.3125 13.988281 14.308594 14.054688 14.308594 14.054688 C 14.3125 14.058594 14.375 14.023438 14.445312 13.976562 L 14.574219 13.894531 L 14.457031 13.835938 L 14.335938 13.777344 L 14.320312 13.914062 M 15.355469 13.851562 L 15.257812 13.894531 L 15.386719 13.976562 C 15.457031 14.023438 15.519531 14.054688 15.527344 14.050781 C 15.542969 14.035156 15.496094 13.800781 15.476562 13.804688 C 15.464844 13.804688 15.414062 13.828125 15.355469 13.851562 M 14.710938 14.207031 C 14.605469 14.269531 14.464844 14.355469 14.394531 14.402344 L 14.269531 14.484375 L 14.269531 15.144531 L 14.441406 15.246094 C 14.53125 15.300781 14.675781 15.382812 14.757812 15.425781 C 14.90625 15.503906 14.910156 15.507812 15.007812 15.457031 C 15.0625 15.429688 15.207031 15.335938 15.332031 15.246094 L 15.558594 15.085938 L 15.558594 14.484375 L 15.394531 14.375 C 15.179688 14.230469 14.949219 14.09375 14.921875 14.09375 C 14.910156 14.09375 14.816406 14.144531 14.710938 14.207031 M 14.808594 14.394531 C 14.671875 14.421875 14.519531 14.566406 14.488281 14.695312 C 14.457031 14.816406 14.503906 14.96875 14.597656 15.074219 C 14.757812 15.257812 15 15.28125 15.179688 15.132812 C 15.554688 14.816406 15.292969 14.296875 14.808594 14.394531 M 13.859375 14.753906 C 13.839844 14.78125 13.828125 14.804688 13.835938 14.808594 C 13.839844 14.8125 13.871094 14.832031 13.898438 14.855469 C 13.945312 14.890625 13.949219 14.882812 13.949219 14.800781 C 13.949219 14.703125 13.917969 14.6875 13.859375 14.753906 M 15.882812 14.785156 C 15.882812 14.863281 15.910156 14.875 15.964844 14.824219 C 15.988281 14.796875 15.988281 14.777344 15.964844 14.75 C 15.917969 14.6875 15.882812 14.703125 15.882812 14.785156 M 16.085938 15.140625 L 15.890625 15.28125 L 15.855469 15.597656 C 15.835938 15.769531 15.828125 15.921875 15.835938 15.9375 C 15.867188 15.988281 16.226562 16.066406 16.457031 16.070312 C 16.738281 16.074219 16.820312 16.027344 16.820312 15.867188 C 16.820312 15.726562 16.640625 15.394531 16.449219 15.183594 L 16.277344 15 L 16.085938 15.140625 M 13.382812 15.195312 C 13.058594 15.546875 12.9375 15.832031 13.050781 15.988281 C 13.089844 16.035156 13.128906 16.042969 13.351562 16.042969 C 13.507812 16.042969 13.699219 16.019531 13.824219 15.988281 L 14.035156 15.933594 L 14.019531 15.828125 C 14.011719 15.769531 13.992188 15.632812 13.980469 15.519531 C 13.964844 15.410156 13.949219 15.316406 13.941406 15.3125 C 13.9375 15.308594 13.851562 15.246094 13.753906 15.171875 C 13.652344 15.09375 13.5625 15.03125 13.554688 15.03125 C 13.542969 15.03125 13.46875 15.105469 13.382812 15.195312 M 15.386719 15.617188 L 15.253906 15.703125 L 15.367188 15.75 C 15.429688 15.777344 15.484375 15.792969 15.488281 15.789062 C 15.5 15.773438 15.539062 15.53125 15.527344 15.53125 C 15.519531 15.53125 15.457031 15.570312 15.386719 15.617188 M 14.324219 15.679688 C 14.332031 15.742188 14.34375 15.792969 14.359375 15.792969 C 14.402344 15.792969 14.5625 15.730469 14.5625 15.710938 C 14.5625 15.699219 14.507812 15.664062 14.4375 15.628906 L 14.3125 15.566406 L 14.324219 15.679688 M 14.679688 16.03125 C 14.558594 16.09375 14.449219 16.148438 14.4375 16.152344 C 14.40625 16.164062 14.539062 16.515625 14.636719 16.683594 C 14.734375 16.847656 14.851562 16.96875 14.917969 16.96875 C 15 16.96875 15.152344 16.769531 15.289062 16.480469 C 15.421875 16.199219 15.441406 16.117188 15.375 16.117188 C 15.351562 16.117188 15.242188 16.070312 15.132812 16.015625 C 15.019531 15.960938 14.921875 15.914062 14.914062 15.917969 C 14.90625 15.917969 14.800781 15.96875 14.679688 16.03125 "/>
</g>
</svg>
